<mxfile host="app.diagrams.net" modified="2020-08-14T03:03:09.196Z" agent="5.0 (Windows NT 10.0; Win64; x64) AppleWebKit/537.36 (KHTML, like Gecko) Chrome/84.0.4147.125 Safari/537.36" etag="1DkSv3s09JI2oQ49vYQH" version="13.6.2" type="github">
  <diagram name="Page-1" id="97916047-d0de-89f5-080d-49f4d83e522f">
    <mxGraphModel dx="2076" dy="1160" grid="1" gridSize="10" guides="1" tooltips="1" connect="1" arrows="1" fold="1" page="1" pageScale="1.5" pageWidth="1169" pageHeight="827" background="#ffffff" math="0" shadow="0">
      <root>
        <mxCell id="0" />
        <mxCell id="1" parent="0" />
        <mxCell id="cKflSFvZLxFDCfWAyd1N-95" style="edgeStyle=orthogonalEdgeStyle;rounded=1;orthogonalLoop=1;jettySize=auto;html=1;entryX=0;entryY=0.5;entryDx=0;entryDy=0;fontSize=11;exitX=0.5;exitY=1;exitDx=0;exitDy=0;fontStyle=1;strokeColor=#23445D;strokeWidth=4;endFill=1;endArrow=block;" edge="1" parent="1" source="2" target="O0lkl8zHiSeVPPPmKp58-56">
          <mxGeometry relative="1" as="geometry" />
        </mxCell>
        <mxCell id="2" value="原始数据下机" style="rounded=1;fillColor=#10739E;strokeColor=none;shadow=1;gradientColor=none;fontStyle=1;fontColor=#FFFFFF;fontSize=14;" parent="1" vertex="1">
          <mxGeometry x="661" y="205.5" width="170" height="60" as="geometry" />
        </mxCell>
        <mxCell id="3" value="数据比对" style="rounded=1;fillColor=#10739E;strokeColor=none;shadow=1;gradientColor=none;fontStyle=1;fontColor=#FFFFFF;fontSize=14;verticalAlign=middle;" parent="1" vertex="1">
          <mxGeometry x="661" y="360" width="170" height="60" as="geometry" />
        </mxCell>
        <mxCell id="19" value="降维分析" style="rounded=1;fillColor=#10739E;strokeColor=none;shadow=1;gradientColor=none;fontStyle=1;fontColor=#FFFFFF;fontSize=14;" parent="1" vertex="1">
          <mxGeometry x="660.9999999999999" y="769" width="170" height="60" as="geometry" />
        </mxCell>
        <mxCell id="O0lkl8zHiSeVPPPmKp58-76" value="" style="edgeStyle=orthogonalEdgeStyle;rounded=1;orthogonalLoop=1;jettySize=auto;html=1;fontSize=11;fontColor=#000000;fontStyle=1;strokeColor=#23445D;strokeWidth=4;endFill=1;endArrow=block;entryX=0.5;entryY=0;entryDx=0;entryDy=0;" parent="1" target="O0lkl8zHiSeVPPPmKp58-75" edge="1">
          <mxGeometry relative="1" as="geometry">
            <mxPoint x="661" y="1108" as="sourcePoint" />
          </mxGeometry>
        </mxCell>
        <mxCell id="cKflSFvZLxFDCfWAyd1N-70" value="" style="edgeStyle=orthogonalEdgeStyle;rounded=1;orthogonalLoop=1;jettySize=auto;html=1;exitX=1;exitY=0.5;exitDx=0;exitDy=0;elbow=vertical;fontStyle=1;strokeColor=#23445D;strokeWidth=4;endFill=1;endArrow=block;" edge="1" parent="1" target="cKflSFvZLxFDCfWAyd1N-69">
          <mxGeometry relative="1" as="geometry">
            <mxPoint x="883" y="1108" as="sourcePoint" />
            <Array as="points">
              <mxPoint x="920" y="1108" />
              <mxPoint x="920" y="1065" />
            </Array>
          </mxGeometry>
        </mxCell>
        <mxCell id="cKflSFvZLxFDCfWAyd1N-74" value="" style="edgeStyle=orthogonalEdgeStyle;rounded=1;orthogonalLoop=1;jettySize=auto;html=1;fontStyle=1;strokeColor=#23445D;strokeWidth=4;endFill=1;endArrow=block;" edge="1" parent="1" target="cKflSFvZLxFDCfWAyd1N-73">
          <mxGeometry relative="1" as="geometry">
            <mxPoint x="883" y="1108" as="sourcePoint" />
          </mxGeometry>
        </mxCell>
        <mxCell id="cKflSFvZLxFDCfWAyd1N-76" value="" style="edgeStyle=orthogonalEdgeStyle;rounded=0;orthogonalLoop=1;jettySize=auto;html=1;" edge="1" parent="1" target="cKflSFvZLxFDCfWAyd1N-75">
          <mxGeometry relative="1" as="geometry">
            <mxPoint x="772" y="1138" as="sourcePoint" />
          </mxGeometry>
        </mxCell>
        <mxCell id="29" value="" style="elbow=vertical;strokeWidth=4;endArrow=block;endFill=1;fontStyle=1;strokeColor=#23445D;" parent="1" source="2" target="3" edge="1">
          <mxGeometry x="22" y="165.5" width="100" height="100" as="geometry">
            <mxPoint x="22" y="265.5" as="sourcePoint" />
            <mxPoint x="122" y="165.5" as="targetPoint" />
          </mxGeometry>
        </mxCell>
        <mxCell id="30" value="" style="edgeStyle=elbowEdgeStyle;elbow=vertical;strokeWidth=4;endArrow=block;endFill=1;fontStyle=1;strokeColor=#23445D;entryX=0.5;entryY=0;entryDx=0;entryDy=0;exitX=0.5;exitY=1;exitDx=0;exitDy=0;" parent="1" source="O0lkl8zHiSeVPPPmKp58-67" target="cKflSFvZLxFDCfWAyd1N-91" edge="1">
          <mxGeometry x="22" y="165.5" width="100" height="100" as="geometry">
            <mxPoint x="22" y="265.5" as="sourcePoint" />
            <mxPoint x="772" y="563" as="targetPoint" />
            <Array as="points" />
          </mxGeometry>
        </mxCell>
        <mxCell id="34" value="" style="edgeStyle=elbowEdgeStyle;elbow=vertical;strokeWidth=4;endArrow=block;endFill=1;fontStyle=1;strokeColor=#23445D;entryX=0;entryY=0.5;entryDx=0;entryDy=0;exitX=0;exitY=0.5;exitDx=0;exitDy=0;" parent="1" source="19" target="O0lkl8zHiSeVPPPmKp58-67" edge="1">
          <mxGeometry x="7" y="265.5" width="100" height="100" as="geometry">
            <mxPoint x="680" y="840" as="sourcePoint" />
            <mxPoint x="650" y="480" as="targetPoint" />
            <Array as="points">
              <mxPoint x="570" y="670" />
            </Array>
          </mxGeometry>
        </mxCell>
        <mxCell id="46" value="" style="elbow=vertical;strokeWidth=4;endArrow=block;endFill=1;fontStyle=1;strokeColor=#23445D;exitX=0.5;exitY=1;exitDx=0;exitDy=0;entryX=0.5;entryY=0;entryDx=0;entryDy=0;" parent="1" source="cKflSFvZLxFDCfWAyd1N-90" target="19" edge="1">
          <mxGeometry x="57" y="265.5" width="100" height="100" as="geometry">
            <mxPoint x="770" y="720" as="sourcePoint" />
            <mxPoint x="770" y="760" as="targetPoint" />
          </mxGeometry>
        </mxCell>
        <mxCell id="47" value="" style="elbow=vertical;strokeWidth=4;endArrow=block;endFill=1;fontStyle=1;strokeColor=#23445D;entryX=0.5;entryY=0;entryDx=0;entryDy=0;exitX=0.5;exitY=1;exitDx=0;exitDy=0;" parent="1" source="19" target="cKflSFvZLxFDCfWAyd1N-89" edge="1">
          <mxGeometry x="-88" y="275.5" width="100" height="100" as="geometry">
            <mxPoint x="746" y="830" as="sourcePoint" />
            <mxPoint x="772" y="871.9999999999998" as="targetPoint" />
          </mxGeometry>
        </mxCell>
        <mxCell id="48" value="" style="elbow=vertical;strokeWidth=4;endArrow=block;endFill=1;fontStyle=1;strokeColor=#23445D;exitX=0.5;exitY=1;exitDx=0;exitDy=0;entryX=0.5;entryY=0;entryDx=0;entryDy=0;" parent="1" source="cKflSFvZLxFDCfWAyd1N-89" target="cKflSFvZLxFDCfWAyd1N-88" edge="1">
          <mxGeometry x="-88" y="285.5" width="100" height="100" as="geometry">
            <mxPoint x="772" y="931.9999999999998" as="sourcePoint" />
            <mxPoint x="772" y="975.0000000000002" as="targetPoint" />
          </mxGeometry>
        </mxCell>
        <mxCell id="49" value="" style="elbow=vertical;strokeWidth=4;endArrow=block;endFill=1;fontStyle=1;strokeColor=#23445D;exitX=0.5;exitY=1;exitDx=0;exitDy=0;entryX=0.5;entryY=0;entryDx=0;entryDy=0;" parent="1" source="cKflSFvZLxFDCfWAyd1N-88" target="cKflSFvZLxFDCfWAyd1N-87" edge="1">
          <mxGeometry x="-88" y="295.5" width="100" height="100" as="geometry">
            <mxPoint x="772" y="1035.0000000000002" as="sourcePoint" />
            <mxPoint x="772" y="1078" as="targetPoint" />
          </mxGeometry>
        </mxCell>
        <mxCell id="55" value="" style="elbow=vertical;strokeWidth=4;endArrow=block;endFill=1;fontStyle=1;strokeColor=#23445D;entryX=0.5;entryY=0;entryDx=0;entryDy=0;exitX=0.5;exitY=1;exitDx=0;exitDy=0;" parent="1" source="cKflSFvZLxFDCfWAyd1N-91" target="cKflSFvZLxFDCfWAyd1N-90" edge="1">
          <mxGeometry x="7" y="265.5" width="100" height="100" as="geometry">
            <mxPoint x="771" y="630" as="sourcePoint" />
            <mxPoint x="772" y="666" as="targetPoint" />
          </mxGeometry>
        </mxCell>
        <mxCell id="O0lkl8zHiSeVPPPmKp58-56" value="物种参考数据库" style="shape=document;boundedLbl=1;fillColor=#10739E;fontSize=14;fontColor=#FFFFFF;shadow=1;sketch=0;strokeColor=none;fontStyle=1" parent="1" vertex="1">
          <mxGeometry x="950" y="280" width="130" height="80" as="geometry" />
        </mxCell>
        <mxCell id="O0lkl8zHiSeVPPPmKp58-58" value="Text" style="text;html=1;resizable=0;autosize=1;align=center;verticalAlign=middle;points=[];fillColor=none;strokeColor=none;rounded=0;shadow=1;sketch=0;fontSize=14;fontColor=#FFFFFF;" parent="1" vertex="1">
          <mxGeometry x="860" y="550" width="40" height="20" as="geometry" />
        </mxCell>
        <mxCell id="O0lkl8zHiSeVPPPmKp58-59" value="&lt;b style=&quot;font-size: 18px&quot;&gt;&lt;font color=&quot;#000000&quot; style=&quot;font-size: 18px&quot;&gt;Cell ranger&lt;/font&gt;&lt;/b&gt;" style="text;html=1;resizable=0;autosize=1;align=center;verticalAlign=middle;points=[];fillColor=none;strokeColor=none;rounded=0;shadow=1;sketch=0;fontSize=18;fontColor=#FFFFFF;" parent="1" vertex="1">
          <mxGeometry x="800" y="280" width="110" height="30" as="geometry" />
        </mxCell>
        <mxCell id="O0lkl8zHiSeVPPPmKp58-74" value="" style="edgeStyle=orthogonalEdgeStyle;rounded=1;orthogonalLoop=1;jettySize=auto;html=1;fontSize=11;fontColor=#000000;fontStyle=1;strokeColor=#23445D;strokeWidth=4;endFill=1;endArrow=block;" parent="1" source="O0lkl8zHiSeVPPPmKp58-67" target="O0lkl8zHiSeVPPPmKp58-73" edge="1">
          <mxGeometry relative="1" as="geometry" />
        </mxCell>
        <mxCell id="cKflSFvZLxFDCfWAyd1N-63" value="" style="edgeStyle=orthogonalEdgeStyle;rounded=1;orthogonalLoop=1;jettySize=auto;html=1;fontStyle=1;strokeColor=#23445D;strokeWidth=4;endFill=1;endArrow=block;" edge="1" parent="1" source="O0lkl8zHiSeVPPPmKp58-67" target="cKflSFvZLxFDCfWAyd1N-62">
          <mxGeometry relative="1" as="geometry" />
        </mxCell>
        <mxCell id="O0lkl8zHiSeVPPPmKp58-67" value="数据质控" style="rounded=1;fillColor=#10739E;strokeColor=none;shadow=1;gradientColor=none;fontStyle=1;fontColor=#FFFFFF;fontSize=14;verticalAlign=middle;" parent="1" vertex="1">
          <mxGeometry x="661" y="460" width="170" height="60" as="geometry" />
        </mxCell>
        <mxCell id="O0lkl8zHiSeVPPPmKp58-68" value="" style="edgeStyle=elbowEdgeStyle;elbow=vertical;strokeWidth=4;endArrow=block;endFill=1;fontStyle=1;strokeColor=#23445D;entryX=0.5;entryY=0;entryDx=0;entryDy=0;exitX=0.5;exitY=1;exitDx=0;exitDy=0;" parent="1" source="3" target="O0lkl8zHiSeVPPPmKp58-67" edge="1">
          <mxGeometry x="60" y="70.5" width="100" height="100" as="geometry">
            <mxPoint x="800" y="420" as="sourcePoint" />
            <mxPoint x="810" y="475" as="targetPoint" />
            <Array as="points" />
          </mxGeometry>
        </mxCell>
        <mxCell id="O0lkl8zHiSeVPPPmKp58-73" value="批次效应" style="shape=process;whiteSpace=wrap;html=1;backgroundOutline=1;rounded=1;shadow=1;fontSize=14;fontColor=#FFFFFF;fontStyle=1;strokeColor=none;fillColor=#10739E;" parent="1" vertex="1">
          <mxGeometry x="972" y="410" width="120" height="60" as="geometry" />
        </mxCell>
        <mxCell id="cKflSFvZLxFDCfWAyd1N-59" value="" style="edgeStyle=orthogonalEdgeStyle;rounded=0;orthogonalLoop=1;jettySize=auto;html=1;exitX=0.5;exitY=1;exitDx=0;exitDy=0;" edge="1" parent="1" target="cKflSFvZLxFDCfWAyd1N-58">
          <mxGeometry relative="1" as="geometry">
            <mxPoint x="772" y="1138" as="sourcePoint" />
          </mxGeometry>
        </mxCell>
        <mxCell id="cKflSFvZLxFDCfWAyd1N-61" value="" style="edgeStyle=orthogonalEdgeStyle;rounded=0;orthogonalLoop=1;jettySize=auto;html=1;exitX=0.5;exitY=1;exitDx=0;exitDy=0;" edge="1" parent="1" target="cKflSFvZLxFDCfWAyd1N-60">
          <mxGeometry relative="1" as="geometry">
            <mxPoint x="772" y="1138" as="sourcePoint" />
          </mxGeometry>
        </mxCell>
        <mxCell id="O0lkl8zHiSeVPPPmKp58-75" value="差异基因功能分析" style="shape=process;whiteSpace=wrap;html=1;backgroundOutline=1;rounded=1;shadow=1;fontSize=14;fontColor=#FFFFFF;fontStyle=1;strokeColor=none;fillColor=#10739E;" parent="1" vertex="1">
          <mxGeometry x="110" y="1181" width="170" height="60" as="geometry" />
        </mxCell>
        <mxCell id="O0lkl8zHiSeVPPPmKp58-77" value="GO富集分析" style="shape=process;whiteSpace=wrap;html=1;backgroundOutline=1;rounded=1;shadow=1;fontSize=14;fontColor=#FFFFFF;fontStyle=1;strokeColor=none;direction=west;fillColor=#1594CC;" parent="1" vertex="1">
          <mxGeometry x="110" y="1341" width="170" height="60" as="geometry" />
        </mxCell>
        <mxCell id="O0lkl8zHiSeVPPPmKp58-79" value="KEGG功富集分析" style="shape=process;html=1;backgroundOutline=1;rounded=1;shadow=1;fontSize=14;fontColor=#FFFFFF;fontStyle=1;strokeColor=none;direction=west;labelPosition=center;verticalLabelPosition=middle;align=center;verticalAlign=middle;flipH=0;whiteSpace=wrap;horizontal=1;flipV=0;fillColor=#1594CC;" parent="1" vertex="1">
          <mxGeometry x="110" y="1261" width="170" height="60" as="geometry" />
        </mxCell>
        <mxCell id="cKflSFvZLxFDCfWAyd1N-58" value="TF编码基因预测" style="shape=process;whiteSpace=wrap;html=1;backgroundOutline=1;rounded=1;shadow=1;fontSize=14;fontColor=#FFFFFF;fontStyle=1;strokeColor=none;fillColor=#10739E;" vertex="1" parent="1">
          <mxGeometry x="360" y="1210" width="170" height="60" as="geometry" />
        </mxCell>
        <mxCell id="cKflSFvZLxFDCfWAyd1N-60" value="PPI网络分析" style="shape=process;whiteSpace=wrap;html=1;backgroundOutline=1;rounded=1;shadow=1;fontSize=14;fontColor=#FFFFFF;fontStyle=1;strokeColor=none;fillColor=#10739E;" vertex="1" parent="1">
          <mxGeometry x="608" y="1210" width="170" height="60" as="geometry" />
        </mxCell>
        <mxCell id="cKflSFvZLxFDCfWAyd1N-62" value="细胞周期" style="shape=process;whiteSpace=wrap;html=1;backgroundOutline=1;rounded=1;shadow=1;fontSize=14;fontColor=#FFFFFF;fontStyle=1;strokeColor=none;fillColor=#10739E;" vertex="1" parent="1">
          <mxGeometry x="972" y="520" width="120" height="60" as="geometry" />
        </mxCell>
        <mxCell id="cKflSFvZLxFDCfWAyd1N-69" value="自动化注释" style="shape=process;whiteSpace=wrap;html=1;backgroundOutline=1;rounded=1;shadow=1;fontSize=14;fontColor=#FFFFFF;fontStyle=1;strokeColor=none;fillColor=#10739E;" vertex="1" parent="1">
          <mxGeometry x="960" y="1035" width="120" height="60" as="geometry" />
        </mxCell>
        <mxCell id="cKflSFvZLxFDCfWAyd1N-73" value="手动注释" style="shape=process;whiteSpace=wrap;html=1;backgroundOutline=1;rounded=1;shadow=1;fontSize=14;fontColor=#FFFFFF;fontStyle=1;strokeColor=none;fillColor=#10739E;" vertex="1" parent="1">
          <mxGeometry x="960" y="1121" width="120" height="60" as="geometry" />
        </mxCell>
        <mxCell id="cKflSFvZLxFDCfWAyd1N-75" value="拟时序分析" style="shape=process;whiteSpace=wrap;html=1;backgroundOutline=1;rounded=1;shadow=1;fontSize=14;fontColor=#FFFFFF;fontStyle=1;strokeColor=none;fillColor=#10739E;" vertex="1" parent="1">
          <mxGeometry x="850.0000000000001" y="1210" width="170" height="60" as="geometry" />
        </mxCell>
        <mxCell id="cKflSFvZLxFDCfWAyd1N-78" value="细胞速率分析" style="shape=process;whiteSpace=wrap;html=1;backgroundOutline=1;rounded=1;shadow=1;fontSize=14;fontColor=#FFFFFF;fontStyle=1;strokeColor=none;fillColor=#10739E;" vertex="1" parent="1">
          <mxGeometry x="1092" y="1210" width="170" height="60" as="geometry" />
        </mxCell>
        <mxCell id="cKflSFvZLxFDCfWAyd1N-79" value="细胞通讯分析" style="shape=process;whiteSpace=wrap;html=1;backgroundOutline=1;rounded=1;shadow=1;fontSize=14;fontColor=#FFFFFF;fontStyle=1;strokeColor=none;fillColor=#10739E;" vertex="1" parent="1">
          <mxGeometry x="1330" y="1210" width="170" height="60" as="geometry" />
        </mxCell>
        <mxCell id="cKflSFvZLxFDCfWAyd1N-80" value="细胞间相互作用分析" style="shape=process;whiteSpace=wrap;html=1;backgroundOutline=1;rounded=1;shadow=1;fontSize=14;fontColor=#FFFFFF;fontStyle=1;strokeColor=none;fillColor=#10739E;" vertex="1" parent="1">
          <mxGeometry x="610.0000000000001" y="1290" width="170" height="60" as="geometry" />
        </mxCell>
        <mxCell id="cKflSFvZLxFDCfWAyd1N-81" value="配体-受体分析" style="shape=process;whiteSpace=wrap;html=1;backgroundOutline=1;rounded=1;shadow=1;fontSize=14;fontColor=#FFFFFF;fontStyle=1;strokeColor=none;fillColor=#10739E;" vertex="1" parent="1">
          <mxGeometry x="1330" y="1280" width="170" height="60" as="geometry" />
        </mxCell>
        <mxCell id="cKflSFvZLxFDCfWAyd1N-82" value="预测细胞空间关系" style="shape=process;whiteSpace=wrap;html=1;backgroundOutline=1;rounded=1;shadow=1;fontSize=14;fontColor=#FFFFFF;fontStyle=1;strokeColor=none;fillColor=#10739E;" vertex="1" parent="1">
          <mxGeometry x="1570" y="1210" width="222" height="60" as="geometry" />
        </mxCell>
        <mxCell id="cKflSFvZLxFDCfWAyd1N-87" value="细胞类型注释" style="rounded=1;fillColor=#10739E;strokeColor=none;shadow=1;gradientColor=none;fontStyle=1;fontColor=#FFFFFF;fontSize=14;" vertex="1" parent="1">
          <mxGeometry x="661.0000000000001" y="1080" width="170" height="60" as="geometry" />
        </mxCell>
        <mxCell id="cKflSFvZLxFDCfWAyd1N-88" value="Maker基因鉴定" style="rounded=1;fillColor=#10739E;strokeColor=none;shadow=1;gradientColor=none;fontStyle=1;fontColor=#FFFFFF;fontSize=14;" vertex="1" parent="1">
          <mxGeometry x="660.9999999999999" y="975" width="170" height="60" as="geometry" />
        </mxCell>
        <mxCell id="cKflSFvZLxFDCfWAyd1N-89" value="细胞聚类" style="rounded=1;fillColor=#10739E;strokeColor=none;shadow=1;gradientColor=none;fontStyle=1;fontColor=#FFFFFF;fontSize=14;" vertex="1" parent="1">
          <mxGeometry x="660.9999999999999" y="872" width="170" height="60" as="geometry" />
        </mxCell>
        <mxCell id="cKflSFvZLxFDCfWAyd1N-90" value="高变基因筛选" style="rounded=1;fillColor=#10739E;strokeColor=none;shadow=1;gradientColor=none;fontStyle=1;fontColor=#FFFFFF;fontSize=14;" vertex="1" parent="1">
          <mxGeometry x="660.9999999999999" y="666" width="170" height="60" as="geometry" />
        </mxCell>
        <mxCell id="cKflSFvZLxFDCfWAyd1N-91" value="数据标准化" style="rounded=1;fillColor=#10739E;strokeColor=none;shadow=1;gradientColor=none;fontStyle=1;fontColor=#FFFFFF;fontSize=14;verticalAlign=middle;" vertex="1" parent="1">
          <mxGeometry x="661" y="563" width="170" height="60" as="geometry" />
        </mxCell>
      </root>
    </mxGraphModel>
  </diagram>
</mxfile>
